<?xml version="1.0" encoding="utf-8" standalone="no"?>
<!DOCTYPE svg PUBLIC "-//W3C//DTD SVG 1.1//EN"
  "http://www.w3.org/Graphics/SVG/1.1/DTD/svg11.dtd">
<!-- Created with matplotlib (https://matplotlib.org/) -->
<svg height="360pt" version="1.1" viewBox="0 0 432 360" width="432pt" xmlns="http://www.w3.org/2000/svg" xmlns:xlink="http://www.w3.org/1999/xlink">
 <defs>
  <style type="text/css">
*{stroke-linecap:butt;stroke-linejoin:round;}
  </style>
 </defs>
 <g id="figure_1">
  <g id="patch_1">
   <path d="M 0 360 
L 432 360 
L 432 0 
L 0 0 
z
" style="fill:#ffffff;"/>
  </g>
  <g id="axes_1">
   <g id="patch_2">
    <path d="M 58.925 152.1 
L 208.6 152.1 
L 208.6 16.8 
L 58.925 16.8 
z
" style="fill:#ffffff;"/>
   </g>
   <g id="matplotlib.axis_1">
    <g id="xtick_1">
     <g id="line2d_1">
      <defs>
       <path d="M 0 0 
L 0 6 
" id="m19984f7a4f" style="stroke:#262626;stroke-width:1.25;"/>
      </defs>
      <g>
       <use style="fill:#262626;stroke:#262626;stroke-width:1.25;" x="65.728409" xlink:href="#m19984f7a4f" y="152.1"/>
      </g>
     </g>
     <g id="text_1">
      <!-- 0 -->
      <defs>
       <path d="M 31.78125 66.40625 
Q 24.171875 66.40625 20.328125 58.90625 
Q 16.5 51.421875 16.5 36.375 
Q 16.5 21.390625 20.328125 13.890625 
Q 24.171875 6.390625 31.78125 6.390625 
Q 39.453125 6.390625 43.28125 13.890625 
Q 47.125 21.390625 47.125 36.375 
Q 47.125 51.421875 43.28125 58.90625 
Q 39.453125 66.40625 31.78125 66.40625 
z
M 31.78125 74.21875 
Q 44.046875 74.21875 50.515625 64.515625 
Q 56.984375 54.828125 56.984375 36.375 
Q 56.984375 17.96875 50.515625 8.265625 
Q 44.046875 -1.421875 31.78125 -1.421875 
Q 19.53125 -1.421875 13.0625 8.265625 
Q 6.59375 17.96875 6.59375 36.375 
Q 6.59375 54.828125 13.0625 64.515625 
Q 19.53125 74.21875 31.78125 74.21875 
z
" id="DejaVuSans-48"/>
      </defs>
      <g style="fill:#262626;" transform="translate(61.704128 171.212023)scale(0.1265 -0.1265)">
       <use xlink:href="#DejaVuSans-48"/>
      </g>
     </g>
    </g>
    <g id="xtick_2">
     <g id="line2d_2">
      <g>
       <use style="fill:#262626;stroke:#262626;stroke-width:1.25;" x="141.321843" xlink:href="#m19984f7a4f" y="152.1"/>
      </g>
     </g>
     <g id="text_2">
      <!-- 10 -->
      <defs>
       <path d="M 12.40625 8.296875 
L 28.515625 8.296875 
L 28.515625 63.921875 
L 10.984375 60.40625 
L 10.984375 69.390625 
L 28.421875 72.90625 
L 38.28125 72.90625 
L 38.28125 8.296875 
L 54.390625 8.296875 
L 54.390625 0 
L 12.40625 0 
z
" id="DejaVuSans-49"/>
      </defs>
      <g style="fill:#262626;" transform="translate(133.273281 171.212023)scale(0.1265 -0.1265)">
       <use xlink:href="#DejaVuSans-49"/>
       <use x="63.623047" xlink:href="#DejaVuSans-48"/>
      </g>
     </g>
    </g>
   </g>
   <g id="matplotlib.axis_2">
    <g id="ytick_1">
     <g id="line2d_3">
      <defs>
       <path d="M 0 0 
L -6 0 
" id="m9b1f8bf08b" style="stroke:#262626;stroke-width:1.25;"/>
      </defs>
      <g>
       <use style="fill:#262626;stroke:#262626;stroke-width:1.25;" x="58.925" xlink:href="#m9b1f8bf08b" y="137.631895"/>
      </g>
     </g>
     <g id="text_3">
      <!-- −0.2 -->
      <defs>
       <path d="M 10.59375 35.5 
L 73.1875 35.5 
L 73.1875 27.203125 
L 10.59375 27.203125 
z
" id="DejaVuSans-8722"/>
       <path d="M 10.6875 12.40625 
L 21 12.40625 
L 21 0 
L 10.6875 0 
z
" id="DejaVuSans-46"/>
       <path d="M 19.1875 8.296875 
L 53.609375 8.296875 
L 53.609375 0 
L 7.328125 0 
L 7.328125 8.296875 
Q 12.9375 14.109375 22.625 23.890625 
Q 32.328125 33.6875 34.8125 36.53125 
Q 39.546875 41.84375 41.421875 45.53125 
Q 43.3125 49.21875 43.3125 52.78125 
Q 43.3125 58.59375 39.234375 62.25 
Q 35.15625 65.921875 28.609375 65.921875 
Q 23.96875 65.921875 18.8125 64.3125 
Q 13.671875 62.703125 7.8125 59.421875 
L 7.8125 69.390625 
Q 13.765625 71.78125 18.9375 73 
Q 24.125 74.21875 28.421875 74.21875 
Q 39.75 74.21875 46.484375 68.546875 
Q 53.21875 62.890625 53.21875 53.421875 
Q 53.21875 48.921875 51.53125 44.890625 
Q 49.859375 40.875 45.40625 35.40625 
Q 44.1875 33.984375 37.640625 27.21875 
Q 31.109375 20.453125 19.1875 8.296875 
z
" id="DejaVuSans-50"/>
      </defs>
      <g style="fill:#262626;" transform="translate(18.707242 142.437906)scale(0.1265 -0.1265)">
       <use xlink:href="#DejaVuSans-8722"/>
       <use x="83.789062" xlink:href="#DejaVuSans-48"/>
       <use x="147.412109" xlink:href="#DejaVuSans-46"/>
       <use x="179.199219" xlink:href="#DejaVuSans-50"/>
      </g>
     </g>
    </g>
    <g id="ytick_2">
     <g id="line2d_4">
      <g>
       <use style="fill:#262626;stroke:#262626;stroke-width:1.25;" x="58.925" xlink:href="#m9b1f8bf08b" y="107.649101"/>
      </g>
     </g>
     <g id="text_4">
      <!-- 0.0 -->
      <g style="fill:#262626;" transform="translate(29.307547 112.455113)scale(0.1265 -0.1265)">
       <use xlink:href="#DejaVuSans-48"/>
       <use x="63.623047" xlink:href="#DejaVuSans-46"/>
       <use x="95.410156" xlink:href="#DejaVuSans-48"/>
      </g>
     </g>
    </g>
    <g id="ytick_3">
     <g id="line2d_5">
      <g>
       <use style="fill:#262626;stroke:#262626;stroke-width:1.25;" x="58.925" xlink:href="#m9b1f8bf08b" y="77.666308"/>
      </g>
     </g>
     <g id="text_5">
      <!-- 0.2 -->
      <g style="fill:#262626;" transform="translate(29.307547 82.472319)scale(0.1265 -0.1265)">
       <use xlink:href="#DejaVuSans-48"/>
       <use x="63.623047" xlink:href="#DejaVuSans-46"/>
       <use x="95.410156" xlink:href="#DejaVuSans-50"/>
      </g>
     </g>
    </g>
    <g id="ytick_4">
     <g id="line2d_6">
      <g>
       <use style="fill:#262626;stroke:#262626;stroke-width:1.25;" x="58.925" xlink:href="#m9b1f8bf08b" y="47.683514"/>
      </g>
     </g>
     <g id="text_6">
      <!-- 0.4 -->
      <defs>
       <path d="M 37.796875 64.3125 
L 12.890625 25.390625 
L 37.796875 25.390625 
z
M 35.203125 72.90625 
L 47.609375 72.90625 
L 47.609375 25.390625 
L 58.015625 25.390625 
L 58.015625 17.1875 
L 47.609375 17.1875 
L 47.609375 0 
L 37.796875 0 
L 37.796875 17.1875 
L 4.890625 17.1875 
L 4.890625 26.703125 
z
" id="DejaVuSans-52"/>
      </defs>
      <g style="fill:#262626;" transform="translate(29.307547 52.489526)scale(0.1265 -0.1265)">
       <use xlink:href="#DejaVuSans-48"/>
       <use x="63.623047" xlink:href="#DejaVuSans-46"/>
       <use x="95.410156" xlink:href="#DejaVuSans-52"/>
      </g>
     </g>
    </g>
    <g id="ytick_5">
     <g id="line2d_7">
      <g>
       <use style="fill:#262626;stroke:#262626;stroke-width:1.25;" x="58.925" xlink:href="#m9b1f8bf08b" y="17.700721"/>
      </g>
     </g>
     <g id="text_7">
      <!-- 0.6 -->
      <defs>
       <path d="M 33.015625 40.375 
Q 26.375 40.375 22.484375 35.828125 
Q 18.609375 31.296875 18.609375 23.390625 
Q 18.609375 15.53125 22.484375 10.953125 
Q 26.375 6.390625 33.015625 6.390625 
Q 39.65625 6.390625 43.53125 10.953125 
Q 47.40625 15.53125 47.40625 23.390625 
Q 47.40625 31.296875 43.53125 35.828125 
Q 39.65625 40.375 33.015625 40.375 
z
M 52.59375 71.296875 
L 52.59375 62.3125 
Q 48.875 64.0625 45.09375 64.984375 
Q 41.3125 65.921875 37.59375 65.921875 
Q 27.828125 65.921875 22.671875 59.328125 
Q 17.53125 52.734375 16.796875 39.40625 
Q 19.671875 43.65625 24.015625 45.921875 
Q 28.375 48.1875 33.59375 48.1875 
Q 44.578125 48.1875 50.953125 41.515625 
Q 57.328125 34.859375 57.328125 23.390625 
Q 57.328125 12.15625 50.6875 5.359375 
Q 44.046875 -1.421875 33.015625 -1.421875 
Q 20.359375 -1.421875 13.671875 8.265625 
Q 6.984375 17.96875 6.984375 36.375 
Q 6.984375 53.65625 15.1875 63.9375 
Q 23.390625 74.21875 37.203125 74.21875 
Q 40.921875 74.21875 44.703125 73.484375 
Q 48.484375 72.75 52.59375 71.296875 
z
" id="DejaVuSans-54"/>
      </defs>
      <g style="fill:#262626;" transform="translate(29.307547 22.506732)scale(0.1265 -0.1265)">
       <use xlink:href="#DejaVuSans-48"/>
       <use x="63.623047" xlink:href="#DejaVuSans-46"/>
       <use x="95.410156" xlink:href="#DejaVuSans-54"/>
      </g>
     </g>
    </g>
   </g>
   <g id="line2d_8">
    <path clip-path="url(#pa7e07074cb)" d="M 201.796591 110.280328 
L 194.237247 108.888084 
L 186.677904 108.0773 
L 179.118561 109.293877 
L 171.559217 112.703209 
L 163.999874 117.938817 
L 156.44053 122.78804 
L 148.881187 124.525728 
L 141.321843 118.818083 
L 133.7625 105.663441 
L 126.203157 88.011714 
L 118.643813 71.557752 
L 111.08447 63.891565 
L 103.525126 69.776746 
L 95.965783 87.227901 
L 88.406439 106.387198 
L 80.847096 117.081074 
L 73.287753 117.282041 
L 65.728409 114.015438 
" style="fill:none;stroke:#808080;stroke-linecap:round;stroke-width:0.5;"/>
   </g>
   <g id="line2d_9">
    <path clip-path="url(#pa7e07074cb)" d="M 171.559217 119.774582 
L 201.796591 113.72914 
L 194.237247 116.146534 
L 186.677904 117.26426 
L 179.118561 118.227261 
L 163.999874 121.886536 
L 156.44053 124.21405 
L 148.881187 125.742957 
L 141.321843 124.853516 
L 126.203157 106.628916 
L 118.643813 89.782825 
L 111.08447 74.444224 
L 103.525126 68.662914 
L 95.965783 76.450177 
L 88.406439 93.750318 
L 80.847096 110.272452 
L 73.287753 117.229599 
L 65.728409 115.32885 
L 133.7625 118.869083 
" style="fill:none;stroke:#808080;stroke-linecap:round;stroke-width:0.5;"/>
   </g>
   <g id="line2d_10">
    <path clip-path="url(#pa7e07074cb)" d="M 201.796591 119.797082 
L 194.237247 120.918249 
L 186.677904 121.132868 
L 179.118561 119.746853 
L 171.559217 117.887826 
L 163.999874 116.090208 
L 156.44053 115.488898 
L 148.881187 116.138496 
L 141.321843 117.688842 
L 133.7625 116.993991 
L 126.203157 111.783351 
L 118.643813 100.127516 
L 103.525126 70.449748 
L 111.08447 83.992688 
L 95.965783 68.479084 
L 88.406439 79.827844 
L 80.847096 96.064168 
L 73.287753 106.056311 
L 65.728409 107.145727 
" style="fill:none;stroke:#808080;stroke-linecap:round;stroke-width:0.5;"/>
   </g>
   <g id="line2d_11">
    <path clip-path="url(#pa7e07074cb)" d="M 201.796591 114.565291 
L 186.677904 115.08289 
L 179.118561 118.459726 
L 171.559217 124.809578 
L 194.237247 113.939565 
L 163.999874 131.31065 
L 156.44053 134.410199 
L 148.881187 130.242537 
L 141.321843 118.559911 
L 133.7625 100.840229 
L 126.203157 82.212704 
L 118.643813 69.564609 
L 111.08447 68.256043 
L 103.525126 78.53356 
L 95.965783 94.580326 
L 88.406439 109.168927 
L 80.847096 116.507372 
L 73.287753 116.547116 
L 65.728409 114.340349 
" style="fill:none;stroke:#808080;stroke-linecap:round;stroke-width:0.5;"/>
   </g>
   <g id="line2d_12">
    <path clip-path="url(#pa7e07074cb)" d="M 201.796591 113.341365 
L 194.237247 110.174629 
L 186.677904 109.682882 
L 179.118561 111.968018 
L 171.559217 115.487761 
L 163.999874 118.726596 
L 156.44053 120.726458 
L 148.881187 119.354426 
L 141.321843 113.90086 
L 133.7625 103.000802 
L 126.203157 87.217216 
L 118.643813 70.82397 
L 111.08447 63.130614 
L 103.525126 69.590246 
L 88.406439 100.777292 
L 95.965783 86.063641 
L 80.847096 105.887389 
L 73.287753 103.178337 
L 65.728409 99.760846 
" style="fill:none;stroke:#808080;stroke-linecap:round;stroke-width:0.5;"/>
   </g>
   <g id="line2d_13">
    <path clip-path="url(#pa7e07074cb)" d="M 201.796591 123.16716 
L 194.237247 125.874705 
L 186.677904 127.383879 
L 179.118561 127.861762 
L 171.559217 127.177884 
L 163.999874 125.546349 
L 156.44053 122.309037 
L 148.881187 118.47907 
L 141.321843 112.503261 
L 133.7625 103.293656 
L 126.203157 89.422481 
L 118.643813 71.934974 
L 111.08447 55.79115 
L 103.525126 50.457657 
L 88.406439 82.996351 
L 80.847096 101.559569 
L 95.965783 61.587969 
L 73.287753 109.562748 
L 65.728409 110.402912 
" style="fill:none;stroke:#808080;stroke-linecap:round;stroke-width:0.5;"/>
   </g>
   <g id="line2d_14">
    <path clip-path="url(#pa7e07074cb)" d="M 201.796591 117.304789 
L 194.237247 119.085606 
L 186.677904 121.594745 
L 133.7625 82.129713 
L 179.118561 124.526055 
L 171.559217 126.90518 
L 163.999874 126.230891 
L 156.44053 121.51777 
L 148.881187 111.850384 
L 141.321843 97.875084 
L 126.203157 68.190622 
L 118.643813 60.754358 
L 111.08447 62.973383 
L 103.525126 75.739188 
L 95.965783 93.679913 
L 88.406439 108.566995 
L 80.847096 115.139405 
L 73.287753 115.07457 
L 65.728409 112.797107 
" style="fill:none;stroke:#808080;stroke-linecap:round;stroke-width:0.5;"/>
   </g>
   <g id="line2d_15">
    <path clip-path="url(#pa7e07074cb)" d="M 201.796591 116.722824 
L 133.7625 98.819686 
L 194.237247 114.217135 
L 186.677904 110.931791 
L 179.118561 109.055763 
L 171.559217 109.918774 
L 163.999874 112.150466 
L 156.44053 113.703413 
L 148.881187 112.295112 
L 141.321843 107.401969 
L 88.406439 106.217733 
L 126.203157 87.68422 
L 118.643813 77.847757 
L 111.08447 74.958682 
L 103.525126 81.019956 
L 80.847096 112.877228 
L 95.965783 93.66074 
L 73.287753 111.22944 
L 65.728409 107.037249 
" style="fill:none;stroke:#808080;stroke-linecap:round;stroke-width:0.5;"/>
   </g>
   <g id="line2d_16">
    <path clip-path="url(#pa7e07074cb)" d="M 201.796591 108.702781 
L 194.237247 109.859791 
L 179.118561 117.951223 
L 171.559217 122.467292 
L 163.999874 127.613244 
L 156.44053 130.240151 
L 148.881187 127.856818 
L 141.321843 118.95762 
L 133.7625 106.297266 
L 126.203157 90.836669 
L 80.847096 112.263544 
L 118.643813 75.495618 
L 111.08447 67.029041 
L 103.525126 71.793413 
L 95.965783 87.133754 
L 88.406439 103.517118 
L 73.287753 113.24478 
L 65.728409 111.144968 
L 186.677904 113.638282 
" style="fill:none;stroke:#808080;stroke-linecap:round;stroke-width:0.5;"/>
   </g>
   <g id="line2d_17">
    <path clip-path="url(#pa7e07074cb)" d="M 201.796591 114.966732 
L 194.237247 114.332551 
L 186.677904 114.759996 
L 179.118561 116.048939 
L 171.559217 117.242157 
L 163.999874 118.856649 
L 156.44053 121.146763 
L 148.881187 126.920023 
L 141.321843 130.533837 
L 126.203157 105.020392 
L 118.643813 74.600788 
L 133.7625 124.77557 
L 111.08447 46.808008 
L 103.525126 38.554306 
L 80.847096 111.862992 
L 95.965783 55.662734 
L 88.406439 86.442564 
L 73.287753 119.968185 
L 65.728409 114.975173 
" style="fill:none;stroke:#808080;stroke-linecap:round;stroke-width:0.5;"/>
   </g>
   <g id="line2d_18">
    <path clip-path="url(#pa7e07074cb)" d="M 201.796591 114.717267 
L 194.237247 115.671607 
L 186.677904 118.296351 
L 179.118561 121.251572 
L 171.559217 124.145752 
L 163.999874 125.121831 
L 156.44053 121.336389 
L 148.881187 111.138159 
L 141.321843 94.272056 
L 133.7625 74.410755 
L 126.203157 57.106612 
L 118.643813 49.112834 
L 111.08447 56.606406 
L 103.525126 77.787987 
L 95.965783 103.469718 
L 88.406439 121.097549 
L 80.847096 124.224378 
L 73.287753 116.862867 
L 65.728409 108.934769 
" style="fill:none;stroke:#808080;stroke-linecap:round;stroke-width:0.5;"/>
   </g>
   <g id="line2d_19">
    <path clip-path="url(#pa7e07074cb)" d="M 201.796591 120.635093 
L 194.237247 119.236312 
L 186.677904 117.393235 
L 179.118561 115.963608 
L 163.999874 115.542932 
L 156.44053 116.100748 
L 148.881187 118.655308 
L 141.321843 120.794709 
L 171.559217 115.575732 
L 133.7625 120.034003 
L 118.643813 100.791493 
L 111.08447 86.146023 
L 103.525126 76.263869 
L 126.203157 113.256874 
L 95.965783 78.196849 
L 88.406439 91.321136 
L 80.847096 106.331151 
L 73.287753 113.958473 
L 65.728409 112.807219 
" style="fill:none;stroke:#808080;stroke-linecap:round;stroke-width:0.5;"/>
   </g>
   <g id="line2d_20">
    <path clip-path="url(#pa7e07074cb)" d="M 201.796591 114.643944 
L 194.237247 113.348917 
L 186.677904 116.847227 
L 179.118561 124.250922 
L 171.559217 133.031287 
L 163.999874 141.282498 
L 65.728409 117.311657 
L 156.44053 145.95 
L 148.881187 143.399649 
L 141.321843 127.593804 
L 133.7625 98.970317 
L 126.203157 63.478576 
L 118.643813 33.473639 
L 111.08447 22.95 
L 103.525126 36.281733 
L 95.965783 64.579721 
L 88.406439 93.823918 
L 80.847096 112.919086 
L 73.287753 118.802968 
" style="fill:none;stroke:#808080;stroke-linecap:round;stroke-width:0.5;"/>
   </g>
   <g id="line2d_21">
    <path clip-path="url(#pa7e07074cb)" d="M 201.796591 118.978096 
L 194.237247 118.338025 
L 186.677904 116.301396 
L 179.118561 115.606334 
L 171.559217 115.507404 
L 156.44053 115.581272 
L 148.881187 115.365094 
L 141.321843 114.832225 
L 118.643813 96.504084 
L 133.7625 112.984089 
L 126.203157 106.884442 
L 111.08447 86.197406 
L 103.525126 81.334448 
L 95.965783 84.553673 
L 88.406439 94.696696 
L 80.847096 106.203701 
L 73.287753 113.006309 
L 163.999874 115.933899 
L 65.728409 113.544708 
" style="fill:none;stroke:#808080;stroke-linecap:round;stroke-width:0.5;"/>
   </g>
   <g id="line2d_22">
    <path clip-path="url(#pa7e07074cb)" d="M 65.728409 111.396212 
L 73.287753 113.714553 
L 80.847096 110.656679 
L 88.406439 98.470831 
L 95.965783 81.094729 
L 103.525126 67.588984 
L 111.08447 65.226802 
L 118.643813 74.455158 
L 126.203157 89.838199 
L 133.7625 104.791614 
L 141.321843 115.61327 
L 148.881187 121.56884 
L 156.44053 123.250942 
L 163.999874 122.445112 
L 171.559217 120.188173 
L 179.118561 117.87228 
L 186.677904 116.313364 
L 194.237247 115.716551 
L 201.796591 115.825135 
" style="fill:none;stroke:#ff0000;stroke-linecap:round;stroke-width:2;"/>
   </g>
   <g id="patch_3">
    <path d="M 58.925 152.1 
L 58.925 16.8 
" style="fill:none;stroke:#262626;stroke-linecap:square;stroke-linejoin:miter;stroke-width:1.25;"/>
   </g>
   <g id="patch_4">
    <path d="M 58.925 152.1 
L 208.6 152.1 
" style="fill:none;stroke:#262626;stroke-linecap:square;stroke-linejoin:miter;stroke-width:1.25;"/>
   </g>
  </g>
  <g id="axes_2">
   <g id="patch_5">
    <path d="M 265.525 152.1 
L 415.2 152.1 
L 415.2 16.8 
L 265.525 16.8 
z
" style="fill:#ffffff;"/>
   </g>
   <g id="matplotlib.axis_3">
    <g id="xtick_3">
     <g id="line2d_23">
      <g>
       <use style="fill:#262626;stroke:#262626;stroke-width:1.25;" x="272.328409" xlink:href="#m19984f7a4f" y="152.1"/>
      </g>
     </g>
     <g id="text_8">
      <!-- 0 -->
      <g style="fill:#262626;" transform="translate(268.304128 171.212023)scale(0.1265 -0.1265)">
       <use xlink:href="#DejaVuSans-48"/>
      </g>
     </g>
    </g>
    <g id="xtick_4">
     <g id="line2d_24">
      <g>
       <use style="fill:#262626;stroke:#262626;stroke-width:1.25;" x="347.921843" xlink:href="#m19984f7a4f" y="152.1"/>
      </g>
     </g>
     <g id="text_9">
      <!-- 10 -->
      <g style="fill:#262626;" transform="translate(339.873281 171.212023)scale(0.1265 -0.1265)">
       <use xlink:href="#DejaVuSans-49"/>
       <use x="63.623047" xlink:href="#DejaVuSans-48"/>
      </g>
     </g>
    </g>
   </g>
   <g id="matplotlib.axis_4">
    <g id="ytick_6">
     <g id="line2d_25">
      <g>
       <use style="fill:#262626;stroke:#262626;stroke-width:1.25;" x="265.525" xlink:href="#m9b1f8bf08b" y="151.76236"/>
      </g>
     </g>
     <g id="text_10">
      <!-- −0.2 -->
      <g style="fill:#262626;" transform="translate(225.307242 156.568372)scale(0.1265 -0.1265)">
       <use xlink:href="#DejaVuSans-8722"/>
       <use x="83.789062" xlink:href="#DejaVuSans-48"/>
       <use x="147.412109" xlink:href="#DejaVuSans-46"/>
       <use x="179.199219" xlink:href="#DejaVuSans-50"/>
      </g>
     </g>
    </g>
    <g id="ytick_7">
     <g id="line2d_26">
      <g>
       <use style="fill:#262626;stroke:#262626;stroke-width:1.25;" x="265.525" xlink:href="#m9b1f8bf08b" y="120.77813"/>
      </g>
     </g>
     <g id="text_11">
      <!-- −0.1 -->
      <g style="fill:#262626;" transform="translate(225.307242 125.584142)scale(0.1265 -0.1265)">
       <use xlink:href="#DejaVuSans-8722"/>
       <use x="83.789062" xlink:href="#DejaVuSans-48"/>
       <use x="147.412109" xlink:href="#DejaVuSans-46"/>
       <use x="179.199219" xlink:href="#DejaVuSans-49"/>
      </g>
     </g>
    </g>
    <g id="ytick_8">
     <g id="line2d_27">
      <g>
       <use style="fill:#262626;stroke:#262626;stroke-width:1.25;" x="265.525" xlink:href="#m9b1f8bf08b" y="89.7939"/>
      </g>
     </g>
     <g id="text_12">
      <!-- 0.0 -->
      <g style="fill:#262626;" transform="translate(235.907547 94.599912)scale(0.1265 -0.1265)">
       <use xlink:href="#DejaVuSans-48"/>
       <use x="63.623047" xlink:href="#DejaVuSans-46"/>
       <use x="95.410156" xlink:href="#DejaVuSans-48"/>
      </g>
     </g>
    </g>
    <g id="ytick_9">
     <g id="line2d_28">
      <g>
       <use style="fill:#262626;stroke:#262626;stroke-width:1.25;" x="265.525" xlink:href="#m9b1f8bf08b" y="58.80967"/>
      </g>
     </g>
     <g id="text_13">
      <!-- 0.1 -->
      <g style="fill:#262626;" transform="translate(235.907547 63.615681)scale(0.1265 -0.1265)">
       <use xlink:href="#DejaVuSans-48"/>
       <use x="63.623047" xlink:href="#DejaVuSans-46"/>
       <use x="95.410156" xlink:href="#DejaVuSans-49"/>
      </g>
     </g>
    </g>
    <g id="ytick_10">
     <g id="line2d_29">
      <g>
       <use style="fill:#262626;stroke:#262626;stroke-width:1.25;" x="265.525" xlink:href="#m9b1f8bf08b" y="27.82544"/>
      </g>
     </g>
     <g id="text_14">
      <!-- 0.2 -->
      <g style="fill:#262626;" transform="translate(235.907547 32.631451)scale(0.1265 -0.1265)">
       <use xlink:href="#DejaVuSans-48"/>
       <use x="63.623047" xlink:href="#DejaVuSans-46"/>
       <use x="95.410156" xlink:href="#DejaVuSans-50"/>
      </g>
     </g>
    </g>
   </g>
   <g id="line2d_30">
    <path clip-path="url(#pcc4ccaba73)" d="M 302.565783 71.755311 
L 310.125126 62.247803 
L 332.803157 95.042239 
L 295.006439 85.209409 
L 279.887753 96.457477 
L 272.328409 96.350209 
L 325.243813 76.943203 
L 317.68447 63.457422 
L 340.3625 110.223374 
L 287.447096 94.09123 
L 408.396591 102.097767 
L 400.837247 102.060368 
L 393.277904 102.776074 
L 385.718561 102.885739 
L 378.159217 104.78291 
L 370.599874 109.532317 
L 363.04053 115.033653 
L 355.481187 118.990754 
L 347.921843 118.221667 
" style="fill:none;stroke:#808080;stroke-linecap:round;stroke-width:0.5;"/>
   </g>
   <g id="line2d_31">
    <path clip-path="url(#pcc4ccaba73)" d="M 310.125126 77.974861 
L 302.565783 82.893423 
L 332.803157 107.217491 
L 295.006439 92.674263 
L 279.887753 91.12111 
L 272.328409 83.14792 
L 287.447096 96.896864 
L 325.243813 95.951924 
L 317.68447 83.395842 
L 408.396591 83.742172 
L 378.159217 94.212762 
L 400.837247 81.127632 
L 393.277904 83.402954 
L 385.718561 87.798235 
L 370.599874 99.262951 
L 363.04053 102.989888 
L 355.481187 105.783108 
L 347.921843 109.54783 
L 340.3625 111.249885 
" style="fill:none;stroke:#808080;stroke-linecap:round;stroke-width:0.5;"/>
   </g>
   <g id="line2d_32">
    <path clip-path="url(#pcc4ccaba73)" d="M 310.125126 92.321733 
L 287.447096 113.530482 
L 302.565783 104.1543 
L 332.803157 84.093281 
L 295.006439 111.912364 
L 279.887753 112.763079 
L 272.328409 109.480486 
L 317.68447 82.548132 
L 325.243813 80.382581 
L 363.04053 96.030245 
L 408.396591 93.939785 
L 400.837247 97.98468 
L 340.3625 89.843176 
L 385.718561 94.081675 
L 378.159217 92.475476 
L 370.599874 94.157784 
L 355.481187 96.07309 
L 347.921843 94.219454 
L 393.277904 97.412707 
" style="fill:none;stroke:#808080;stroke-linecap:round;stroke-width:0.5;"/>
   </g>
   <g id="line2d_33">
    <path clip-path="url(#pcc4ccaba73)" d="M 310.125126 75.189104 
L 287.447096 96.476801 
L 302.565783 80.12646 
L 332.803157 97.044363 
L 295.006439 90.048865 
L 279.887753 96.819632 
L 272.328409 94.584165 
L 317.68447 78.844086 
L 325.243813 88.163423 
L 408.396591 95.091332 
L 400.837247 91.62791 
L 385.718561 88.681438 
L 378.159217 92.025434 
L 393.277904 89.531003 
L 370.599874 97.975201 
L 363.04053 102.842099 
L 355.481187 104.027653 
L 347.921843 104.017508 
L 340.3625 102.083391 
" style="fill:none;stroke:#808080;stroke-linecap:round;stroke-width:0.5;"/>
   </g>
   <g id="line2d_34">
    <path clip-path="url(#pcc4ccaba73)" d="M 310.125126 72.490041 
L 287.447096 92.823906 
L 302.565783 70.83537 
L 332.803157 102.138364 
L 295.006439 80.716156 
L 279.887753 98.443016 
L 272.328409 98.777026 
L 317.68447 84.430937 
L 325.243813 97.069598 
L 408.396591 105.608304 
L 400.837247 101.060487 
L 393.277904 100.760703 
L 385.718561 101.647463 
L 378.159217 100.448278 
L 370.599874 95.052032 
L 363.04053 91.047005 
L 347.921843 93.988532 
L 355.481187 91.077002 
L 340.3625 98.948623 
" style="fill:none;stroke:#808080;stroke-linecap:round;stroke-width:0.5;"/>
   </g>
   <g id="line2d_35">
    <path clip-path="url(#pcc4ccaba73)" d="M 310.125126 78.053458 
L 302.565783 79.225563 
L 287.447096 97.886272 
L 325.243813 102.02562 
L 295.006439 89.153053 
L 332.803157 110.294476 
L 272.328409 99.532105 
L 279.887753 101.794852 
L 317.68447 87.870325 
L 408.396591 103.296052 
L 400.837247 99.475468 
L 393.277904 95.055715 
L 385.718561 92.547472 
L 378.159217 93.128267 
L 370.599874 96.482533 
L 355.481187 103.879324 
L 363.04053 99.398185 
L 347.921843 107.159712 
L 340.3625 110.777847 
" style="fill:none;stroke:#808080;stroke-linecap:round;stroke-width:0.5;"/>
   </g>
   <g id="line2d_36">
    <path clip-path="url(#pcc4ccaba73)" d="M 302.565783 54.062533 
L 310.125126 58.176385 
L 332.803157 90.642383 
L 295.006439 63.444877 
L 279.887753 89.700847 
L 287.447096 79.501077 
L 325.243813 81.92735 
L 317.68447 70.026337 
L 340.3625 96.004271 
L 408.396591 94.33728 
L 400.837247 97.81747 
L 393.277904 97.887498 
L 385.718561 97.730135 
L 378.159217 99.423936 
L 370.599874 100.880001 
L 363.04053 101.240514 
L 355.481187 101.878363 
L 347.921843 99.925381 
L 272.328409 91.931575 
" style="fill:none;stroke:#808080;stroke-linecap:round;stroke-width:0.5;"/>
   </g>
   <g id="line2d_37">
    <path clip-path="url(#pcc4ccaba73)" d="M 302.565783 43.552482 
L 310.125126 22.95 
L 332.803157 110.167755 
L 295.006439 79.568283 
L 279.887753 111.771603 
L 272.328409 107.673507 
L 287.447096 105.971676 
L 325.243813 69.454482 
L 317.68447 33.547321 
L 340.3625 137.177814 
L 408.396591 97.964482 
L 400.837247 93.041395 
L 393.277904 89.902118 
L 385.718561 88.790694 
L 378.159217 95.687028 
L 363.04053 121.95075 
L 370.599874 106.125753 
L 355.481187 136.203689 
L 347.921843 144.466351 
" style="fill:none;stroke:#808080;stroke-linecap:round;stroke-width:0.5;"/>
   </g>
   <g id="line2d_38">
    <path clip-path="url(#pcc4ccaba73)" d="M 310.125126 75.052645 
L 302.565783 71.761685 
L 287.447096 92.732786 
L 325.243813 92.988581 
L 295.006439 80.415053 
L 332.803157 95.192262 
L 272.328409 94.378603 
L 279.887753 97.820124 
L 317.68447 85.172588 
L 408.396591 93.33667 
L 393.277904 96.838215 
L 400.837247 94.558559 
L 385.718561 97.478339 
L 378.159217 96.555974 
L 370.599874 96.024564 
L 363.04053 95.318241 
L 347.921843 95.34881 
L 355.481187 95.53726 
L 340.3625 95.184322 
" style="fill:none;stroke:#808080;stroke-linecap:round;stroke-width:0.5;"/>
   </g>
   <g id="line2d_39">
    <path clip-path="url(#pcc4ccaba73)" d="M 310.125126 32.146693 
L 302.565783 23.7612 
L 332.803157 145.95 
L 295.006439 49.636361 
L 279.887753 101.391129 
L 272.328409 104.03307 
L 325.243813 123.325755 
L 317.68447 74.492505 
L 340.3625 136.053128 
L 287.447096 83.051002 
L 408.396591 106.133613 
L 400.837247 101.380593 
L 393.277904 96.225957 
L 385.718561 93.603316 
L 370.599874 93.082147 
L 363.04053 91.991334 
L 355.481187 95.684594 
L 378.159217 93.471113 
L 347.921843 111.164165 
" style="fill:none;stroke:#808080;stroke-linecap:round;stroke-width:0.5;"/>
   </g>
   <g id="line2d_40">
    <path clip-path="url(#pcc4ccaba73)" d="M 310.125126 80.901526 
L 302.565783 73.824176 
L 332.803157 107.47741 
L 295.006439 75.380482 
L 279.887753 86.66888 
L 272.328409 88.456866 
L 325.243813 102.915486 
L 317.68447 92.612397 
L 287.447096 81.923105 
L 408.396591 78.27994 
L 400.837247 81.79151 
L 393.277904 84.835025 
L 385.718561 87.350907 
L 378.159217 88.301717 
L 370.599874 91.809973 
L 363.04053 96.620624 
L 355.481187 101.886235 
L 347.921843 105.2131 
L 340.3625 107.379505 
" style="fill:none;stroke:#808080;stroke-linecap:round;stroke-width:0.5;"/>
   </g>
   <g id="line2d_41">
    <path clip-path="url(#pcc4ccaba73)" d="M 302.565783 74.777742 
L 310.125126 87.55819 
L 332.803157 113.779613 
L 295.006439 74.478974 
L 279.887753 89.463585 
L 272.328409 87.890747 
L 287.447096 83.723879 
L 325.243813 113.996214 
L 317.68447 104.307144 
L 340.3625 106.495185 
L 408.396591 84.277053 
L 400.837247 84.277909 
L 393.277904 82.069189 
L 385.718561 80.004308 
L 370.599874 77.562485 
L 378.159217 78.689156 
L 363.04053 80.212747 
L 355.481187 86.962879 
L 347.921843 96.629709 
" style="fill:none;stroke:#808080;stroke-linecap:round;stroke-width:0.5;"/>
   </g>
   <g id="line2d_42">
    <path clip-path="url(#pcc4ccaba73)" d="M 302.565783 73.157896 
L 310.125126 64.688387 
L 325.243813 88.763937 
L 287.447096 98.881448 
L 295.006439 89.56218 
L 272.328409 95.493057 
L 332.803157 104.801165 
L 279.887753 97.596969 
L 317.68447 72.064099 
L 400.837247 95.15212 
L 408.396591 96.243424 
L 393.277904 92.700023 
L 385.718561 90.224547 
L 378.159217 90.944595 
L 355.481187 105.501348 
L 370.599874 92.617068 
L 363.04053 97.761932 
L 347.921843 112.513895 
L 340.3625 113.05669 
" style="fill:none;stroke:#808080;stroke-linecap:round;stroke-width:0.5;"/>
   </g>
   <g id="line2d_43">
    <path clip-path="url(#pcc4ccaba73)" d="M 302.565783 87.311053 
L 287.447096 106.787657 
L 310.125126 76.59055 
L 295.006439 99.757976 
L 332.803157 88.099014 
L 272.328409 105.873399 
L 279.887753 108.049655 
L 317.68447 73.065961 
L 325.243813 78.363064 
L 408.396591 76.410272 
L 400.837247 79.920154 
L 393.277904 80.713425 
L 385.718561 78.1951 
L 378.159217 76.984371 
L 370.599874 81.068527 
L 363.04053 90.530252 
L 347.921843 103.09147 
L 355.481187 100.467138 
L 340.3625 98.080447 
" style="fill:none;stroke:#808080;stroke-linecap:round;stroke-width:0.5;"/>
   </g>
   <g id="line2d_44">
    <path clip-path="url(#pcc4ccaba73)" d="M 272.328409 96.971624 
L 279.887753 98.561568 
L 287.447096 94.591299 
L 295.006439 82.997021 
L 302.565783 70.799942 
L 310.125126 68.310098 
L 317.68447 77.55965 
L 325.243813 92.305087 
L 332.803157 103.709987 
L 340.3625 108.039833 
L 347.921843 106.82197 
L 355.481187 103.13946 
L 363.04053 98.783391 
L 370.599874 95.116667 
L 378.159217 92.652216 
L 385.718561 91.501383 
L 393.277904 92.150758 
L 400.837247 92.948304 
L 408.396591 93.625582 
" style="fill:none;stroke:#ff0000;stroke-linecap:round;stroke-width:2;"/>
   </g>
   <g id="patch_6">
    <path d="M 265.525 152.1 
L 265.525 16.8 
" style="fill:none;stroke:#262626;stroke-linecap:square;stroke-linejoin:miter;stroke-width:1.25;"/>
   </g>
   <g id="patch_7">
    <path d="M 265.525 152.1 
L 415.2 152.1 
" style="fill:none;stroke:#262626;stroke-linecap:square;stroke-linejoin:miter;stroke-width:1.25;"/>
   </g>
  </g>
  <g id="axes_3">
   <g id="patch_8">
    <path d="M 58.925 326.7 
L 208.6 326.7 
L 208.6 191.4 
L 58.925 191.4 
z
" style="fill:#ffffff;"/>
   </g>
   <g id="matplotlib.axis_5">
    <g id="xtick_5">
     <g id="line2d_45">
      <g>
       <use style="fill:#262626;stroke:#262626;stroke-width:1.25;" x="65.728409" xlink:href="#m19984f7a4f" y="326.7"/>
      </g>
     </g>
     <g id="text_15">
      <!-- 0 -->
      <g style="fill:#262626;" transform="translate(61.704128 345.812023)scale(0.1265 -0.1265)">
       <use xlink:href="#DejaVuSans-48"/>
      </g>
     </g>
    </g>
    <g id="xtick_6">
     <g id="line2d_46">
      <g>
       <use style="fill:#262626;stroke:#262626;stroke-width:1.25;" x="141.321843" xlink:href="#m19984f7a4f" y="326.7"/>
      </g>
     </g>
     <g id="text_16">
      <!-- 10 -->
      <g style="fill:#262626;" transform="translate(133.273281 345.812023)scale(0.1265 -0.1265)">
       <use xlink:href="#DejaVuSans-49"/>
       <use x="63.623047" xlink:href="#DejaVuSans-48"/>
      </g>
     </g>
    </g>
   </g>
   <g id="matplotlib.axis_6">
    <g id="ytick_11">
     <g id="line2d_47">
      <g>
       <use style="fill:#262626;stroke:#262626;stroke-width:1.25;" x="58.925" xlink:href="#m9b1f8bf08b" y="288.613614"/>
      </g>
     </g>
     <g id="text_17">
      <!-- 0.0 -->
      <g style="fill:#262626;" transform="translate(29.307547 293.419626)scale(0.1265 -0.1265)">
       <use xlink:href="#DejaVuSans-48"/>
       <use x="63.623047" xlink:href="#DejaVuSans-46"/>
       <use x="95.410156" xlink:href="#DejaVuSans-48"/>
      </g>
     </g>
    </g>
    <g id="ytick_12">
     <g id="line2d_48">
      <g>
       <use style="fill:#262626;stroke:#262626;stroke-width:1.25;" x="58.925" xlink:href="#m9b1f8bf08b" y="248.636157"/>
      </g>
     </g>
     <g id="text_18">
      <!-- 0.2 -->
      <g style="fill:#262626;" transform="translate(29.307547 253.442169)scale(0.1265 -0.1265)">
       <use xlink:href="#DejaVuSans-48"/>
       <use x="63.623047" xlink:href="#DejaVuSans-46"/>
       <use x="95.410156" xlink:href="#DejaVuSans-50"/>
      </g>
     </g>
    </g>
    <g id="ytick_13">
     <g id="line2d_49">
      <g>
       <use style="fill:#262626;stroke:#262626;stroke-width:1.25;" x="58.925" xlink:href="#m9b1f8bf08b" y="208.6587"/>
      </g>
     </g>
     <g id="text_19">
      <!-- 0.4 -->
      <g style="fill:#262626;" transform="translate(29.307547 213.464711)scale(0.1265 -0.1265)">
       <use xlink:href="#DejaVuSans-48"/>
       <use x="63.623047" xlink:href="#DejaVuSans-46"/>
       <use x="95.410156" xlink:href="#DejaVuSans-52"/>
      </g>
     </g>
    </g>
   </g>
   <g id="line2d_50">
    <path clip-path="url(#p08655889cd)" d="M 65.728409 292.901688 
L 73.287753 292.821967 
L 80.847096 290.420123 
L 88.406439 283.271287 
L 95.965783 274.510061 
L 111.08447 276.733085 
L 103.525126 271.545839 
L 118.643813 287.015863 
L 126.203157 297.167372 
L 133.7625 302.626073 
L 141.321843 300.6934 
L 148.881187 293.831484 
L 156.44053 288.00053 
L 163.999874 287.948024 
L 171.559217 289.153251 
L 179.118561 291.005469 
L 186.677904 292.891019 
L 194.237247 296.473635 
L 201.796591 298.294103 
" style="fill:none;stroke:#808080;stroke-linecap:round;stroke-width:0.5;"/>
   </g>
   <g id="line2d_51">
    <path clip-path="url(#p08655889cd)" d="M 111.08447 268.414917 
L 73.287753 295.896108 
L 80.847096 290.761191 
L 88.406439 277.127897 
L 95.965783 262.99645 
L 103.525126 258.654666 
L 65.728409 292.008742 
L 126.203157 300.067625 
L 133.7625 305.823942 
L 118.643813 285.662672 
L 141.321843 303.79216 
L 148.881187 298.497312 
L 156.44053 294.013058 
L 163.999874 291.830254 
L 171.559217 290.698228 
L 179.118561 291.381194 
L 186.677904 294.736887 
L 201.796591 300.301219 
L 194.237247 298.42378 
" style="fill:none;stroke:#808080;stroke-linecap:round;stroke-width:0.5;"/>
   </g>
   <g id="line2d_52">
    <path clip-path="url(#p08655889cd)" d="M 95.965783 282.60819 
L 65.728409 273.742201 
L 73.287753 275.909098 
L 80.847096 282.438752 
L 88.406439 286.694956 
L 103.525126 274.075605 
L 111.08447 270.175021 
L 118.643813 274.399586 
L 126.203157 282.956965 
L 133.7625 289.160069 
L 141.321843 291.683169 
L 148.881187 292.633384 
L 156.44053 292.496359 
L 163.999874 291.360099 
L 186.677904 289.224673 
L 171.559217 290.045212 
L 179.118561 289.436757 
L 194.237247 289.527331 
L 201.796591 290.398285 
" style="fill:none;stroke:#808080;stroke-linecap:round;stroke-width:0.5;"/>
   </g>
   <g id="line2d_53">
    <path clip-path="url(#p08655889cd)" d="M 95.965783 273.430701 
L 65.728409 294.294943 
L 73.287753 297.855326 
L 80.847096 299.638129 
L 88.406439 291.609494 
L 103.525126 256.484735 
L 111.08447 253.411575 
L 118.643813 268.449728 
L 126.203157 292.081045 
L 141.321843 320.55 
L 148.881187 319.508942 
L 156.44053 311.674366 
L 163.999874 301.655198 
L 171.559217 294.521845 
L 133.7625 311.461583 
L 179.118561 291.993034 
L 186.677904 292.770325 
L 194.237247 293.679798 
L 201.796591 294.767037 
" style="fill:none;stroke:#808080;stroke-linecap:round;stroke-width:0.5;"/>
   </g>
   <g id="line2d_54">
    <path clip-path="url(#p08655889cd)" d="M 65.728409 286.403563 
L 73.287753 290.664806 
L 80.847096 300.068413 
L 88.406439 303.647808 
L 95.965783 288.980369 
L 103.525126 259.033228 
L 111.08447 232.201109 
L 118.643813 224.847768 
L 126.203157 238.98118 
L 133.7625 263.070271 
L 141.321843 286.110001 
L 148.881187 302.110014 
L 163.999874 310.078749 
L 171.559217 306.675942 
L 156.44053 309.297421 
L 179.118561 301.233748 
L 186.677904 295.414402 
L 194.237247 291.49208 
L 201.796591 290.796467 
" style="fill:none;stroke:#808080;stroke-linecap:round;stroke-width:0.5;"/>
   </g>
   <g id="line2d_55">
    <path clip-path="url(#p08655889cd)" d="M 65.728409 292.11474 
L 80.847096 293.16364 
L 88.406439 264.536445 
L 95.965783 223.797199 
L 73.287753 298.712524 
L 103.525126 197.55 
L 111.08447 206.527707 
L 118.643813 244.93552 
L 126.203157 286.422265 
L 133.7625 310.347136 
L 141.321843 315.087103 
L 148.881187 310.190911 
L 171.559217 302.744073 
L 156.44053 304.693309 
L 163.999874 302.850949 
L 179.118561 302.792998 
L 186.677904 301.794028 
L 194.237247 301.1077 
L 201.796591 301.259106 
" style="fill:none;stroke:#808080;stroke-linecap:round;stroke-width:0.5;"/>
   </g>
   <g id="line2d_56">
    <path clip-path="url(#p08655889cd)" d="M 65.728409 293.206494 
L 73.287753 294.046331 
L 80.847096 287.846918 
L 88.406439 271.297497 
L 95.965783 251.432235 
L 103.525126 241.435137 
L 111.08447 249.361689 
L 118.643813 270.978569 
L 126.203157 293.759354 
L 133.7625 308.077894 
L 141.321843 312.290449 
L 148.881187 309.389262 
L 156.44053 304.512259 
L 163.999874 299.530253 
L 171.559217 296.148628 
L 179.118561 294.215853 
L 186.677904 293.972948 
L 194.237247 294.594383 
L 201.796591 294.812631 
" style="fill:none;stroke:#808080;stroke-linecap:round;stroke-width:0.5;"/>
   </g>
   <g id="line2d_57">
    <path clip-path="url(#p08655889cd)" d="M 65.728409 290.20204 
L 73.287753 286.701362 
L 80.847096 283.543842 
L 88.406439 276.396546 
L 95.965783 261.658565 
L 103.525126 245.940866 
L 111.08447 239.284631 
L 118.643813 247.859774 
L 126.203157 266.875268 
L 133.7625 286.891258 
L 141.321843 303.797298 
L 171.559217 306.305913 
L 148.881187 316.228529 
L 156.44053 319.705256 
L 163.999874 315.152302 
L 179.118561 296.636963 
L 186.677904 289.198405 
L 194.237247 280.902924 
L 201.796591 279.318912 
" style="fill:none;stroke:#808080;stroke-linecap:round;stroke-width:0.5;"/>
   </g>
   <g id="line2d_58">
    <path clip-path="url(#p08655889cd)" d="M 65.728409 292.784018 
L 73.287753 293.316078 
L 80.847096 288.254795 
L 88.406439 275.820508 
L 95.965783 261.929182 
L 103.525126 253.401329 
L 111.08447 254.409539 
L 118.643813 263.272364 
L 126.203157 275.314136 
L 133.7625 286.188505 
L 141.321843 293.599208 
L 148.881187 297.12457 
L 156.44053 297.103844 
L 163.999874 293.843585 
L 171.559217 288.798545 
L 186.677904 285.755086 
L 179.118561 285.582717 
L 194.237247 288.371388 
L 201.796591 292.538204 
" style="fill:none;stroke:#808080;stroke-linecap:round;stroke-width:0.5;"/>
   </g>
   <g id="line2d_59">
    <path clip-path="url(#p08655889cd)" d="M 65.728409 284.84536 
L 73.287753 290.458874 
L 80.847096 297.115201 
L 88.406439 298.014762 
L 95.965783 291.028885 
L 103.525126 280.05615 
L 111.08447 271.399366 
L 118.643813 268.073466 
L 126.203157 271.122109 
L 133.7625 279.253523 
L 141.321843 290.352597 
L 148.881187 300.745182 
L 156.44053 307.96776 
L 163.999874 310.475387 
L 179.118561 305.56898 
L 186.677904 301.508261 
L 171.559217 309.041687 
L 194.237247 297.140284 
L 201.796591 290.835249 
" style="fill:none;stroke:#808080;stroke-linecap:round;stroke-width:0.5;"/>
   </g>
   <g id="line2d_60">
    <path clip-path="url(#p08655889cd)" d="M 65.728409 288.036359 
L 73.287753 289.736266 
L 80.847096 291.500292 
L 88.406439 288.201167 
L 95.965783 280.49095 
L 133.7625 307.915669 
L 103.525126 276.829731 
L 111.08447 282.056067 
L 118.643813 292.254793 
L 126.203157 302.020861 
L 141.321843 308.837779 
L 148.881187 307.154806 
L 179.118561 298.209697 
L 156.44053 305.336735 
L 163.999874 303.701867 
L 171.559217 300.970074 
L 186.677904 295.957361 
L 194.237247 294.630078 
L 201.796591 290.60436 
" style="fill:none;stroke:#808080;stroke-linecap:round;stroke-width:0.5;"/>
   </g>
   <g id="line2d_61">
    <path clip-path="url(#p08655889cd)" d="M 65.728409 280.939449 
L 73.287753 279.664745 
L 80.847096 273.608753 
L 88.406439 266.077088 
L 95.965783 264.017547 
L 103.525126 270.418486 
L 111.08447 282.065705 
L 118.643813 291.731344 
L 126.203157 296.923262 
L 141.321843 297.327502 
L 133.7625 298.059743 
L 148.881187 295.685126 
L 156.44053 295.133069 
L 163.999874 295.142481 
L 171.559217 296.566447 
L 179.118561 298.545763 
L 186.677904 300.499316 
L 194.237247 300.633708 
L 201.796591 301.073057 
" style="fill:none;stroke:#808080;stroke-linecap:round;stroke-width:0.5;"/>
   </g>
   <g id="line2d_62">
    <path clip-path="url(#p08655889cd)" d="M 65.728409 296.262532 
L 73.287753 297.906886 
L 80.847096 293.457024 
L 88.406439 278.955525 
L 95.965783 259.093193 
L 103.525126 246.390944 
L 111.08447 249.450042 
L 118.643813 265.645092 
L 126.203157 285.900907 
L 133.7625 302.215994 
L 141.321843 310.658112 
L 148.881187 311.443823 
L 156.44053 306.620945 
L 163.999874 299.654187 
L 171.559217 293.112263 
L 179.118561 288.628735 
L 194.237247 283.917466 
L 201.796591 283.731293 
L 186.677904 285.798109 
" style="fill:none;stroke:#808080;stroke-linecap:round;stroke-width:0.5;"/>
   </g>
   <g id="line2d_63">
    <path clip-path="url(#p08655889cd)" d="M 73.287753 300.661348 
L 65.728409 297.818142 
L 80.847096 296.113347 
L 88.406439 277.100431 
L 95.965783 248.211858 
L 103.525126 225.477292 
L 111.08447 224.382913 
L 118.643813 247.648048 
L 126.203157 281.280775 
L 133.7625 307.156688 
L 141.321843 317.257892 
L 148.881187 315.32786 
L 156.44053 307.285227 
L 163.999874 299.150504 
L 171.559217 292.811912 
L 179.118561 289.639858 
L 186.677904 289.157065 
L 201.796591 295.780059 
L 194.237247 291.749018 
" style="fill:none;stroke:#808080;stroke-linecap:round;stroke-width:0.5;"/>
   </g>
   <g id="line2d_64">
    <path clip-path="url(#p08655889cd)" d="M 65.728409 289.682877 
L 73.287753 291.739408 
L 80.847096 290.566458 
L 88.406439 281.339387 
L 95.965783 266.013242 
L 103.525126 254.092429 
L 111.08447 254.276669 
L 118.643813 266.626756 
L 126.203157 283.633795 
L 133.7625 297.017739 
L 141.321843 303.716905 
L 148.881187 304.9908 
L 156.44053 303.131438 
L 163.999874 300.16956 
L 171.559217 296.971001 
L 179.118561 294.633698 
L 186.677904 293.476992 
L 194.237247 293.04597 
L 201.796591 293.179284 
" style="fill:none;stroke:#ff0000;stroke-linecap:round;stroke-width:2;"/>
   </g>
   <g id="patch_9">
    <path d="M 58.925 326.7 
L 58.925 191.4 
" style="fill:none;stroke:#262626;stroke-linecap:square;stroke-linejoin:miter;stroke-width:1.25;"/>
   </g>
   <g id="patch_10">
    <path d="M 58.925 326.7 
L 208.6 326.7 
" style="fill:none;stroke:#262626;stroke-linecap:square;stroke-linejoin:miter;stroke-width:1.25;"/>
   </g>
  </g>
  <g id="axes_4">
   <g id="patch_11">
    <path d="M 265.525 326.7 
L 415.2 326.7 
L 415.2 191.4 
L 265.525 191.4 
z
" style="fill:#ffffff;"/>
   </g>
   <g id="matplotlib.axis_7">
    <g id="xtick_7">
     <g id="line2d_65">
      <g>
       <use style="fill:#262626;stroke:#262626;stroke-width:1.25;" x="272.328409" xlink:href="#m19984f7a4f" y="326.7"/>
      </g>
     </g>
     <g id="text_20">
      <!-- 0 -->
      <g style="fill:#262626;" transform="translate(268.304128 345.812023)scale(0.1265 -0.1265)">
       <use xlink:href="#DejaVuSans-48"/>
      </g>
     </g>
    </g>
    <g id="xtick_8">
     <g id="line2d_66">
      <g>
       <use style="fill:#262626;stroke:#262626;stroke-width:1.25;" x="347.921843" xlink:href="#m19984f7a4f" y="326.7"/>
      </g>
     </g>
     <g id="text_21">
      <!-- 10 -->
      <g style="fill:#262626;" transform="translate(339.873281 345.812023)scale(0.1265 -0.1265)">
       <use xlink:href="#DejaVuSans-49"/>
       <use x="63.623047" xlink:href="#DejaVuSans-48"/>
      </g>
     </g>
    </g>
   </g>
   <g id="matplotlib.axis_8">
    <g id="ytick_14">
     <g id="line2d_67">
      <g>
       <use style="fill:#262626;stroke:#262626;stroke-width:1.25;" x="265.525" xlink:href="#m9b1f8bf08b" y="300.053768"/>
      </g>
     </g>
     <g id="text_22">
      <!-- −0.1 -->
      <g style="fill:#262626;" transform="translate(225.307242 304.85978)scale(0.1265 -0.1265)">
       <use xlink:href="#DejaVuSans-8722"/>
       <use x="83.789062" xlink:href="#DejaVuSans-48"/>
       <use x="147.412109" xlink:href="#DejaVuSans-46"/>
       <use x="179.199219" xlink:href="#DejaVuSans-49"/>
      </g>
     </g>
    </g>
    <g id="ytick_15">
     <g id="line2d_68">
      <g>
       <use style="fill:#262626;stroke:#262626;stroke-width:1.25;" x="265.525" xlink:href="#m9b1f8bf08b" y="266.354338"/>
      </g>
     </g>
     <g id="text_23">
      <!-- 0.0 -->
      <g style="fill:#262626;" transform="translate(235.907547 271.16035)scale(0.1265 -0.1265)">
       <use xlink:href="#DejaVuSans-48"/>
       <use x="63.623047" xlink:href="#DejaVuSans-46"/>
       <use x="95.410156" xlink:href="#DejaVuSans-48"/>
      </g>
     </g>
    </g>
    <g id="ytick_16">
     <g id="line2d_69">
      <g>
       <use style="fill:#262626;stroke:#262626;stroke-width:1.25;" x="265.525" xlink:href="#m9b1f8bf08b" y="232.654909"/>
      </g>
     </g>
     <g id="text_24">
      <!-- 0.1 -->
      <g style="fill:#262626;" transform="translate(235.907547 237.46092)scale(0.1265 -0.1265)">
       <use xlink:href="#DejaVuSans-48"/>
       <use x="63.623047" xlink:href="#DejaVuSans-46"/>
       <use x="95.410156" xlink:href="#DejaVuSans-49"/>
      </g>
     </g>
    </g>
    <g id="ytick_17">
     <g id="line2d_70">
      <g>
       <use style="fill:#262626;stroke:#262626;stroke-width:1.25;" x="265.525" xlink:href="#m9b1f8bf08b" y="198.955479"/>
      </g>
     </g>
     <g id="text_25">
      <!-- 0.2 -->
      <g style="fill:#262626;" transform="translate(235.907547 203.761491)scale(0.1265 -0.1265)">
       <use xlink:href="#DejaVuSans-48"/>
       <use x="63.623047" xlink:href="#DejaVuSans-46"/>
       <use x="95.410156" xlink:href="#DejaVuSans-50"/>
      </g>
     </g>
    </g>
   </g>
   <g id="line2d_71">
    <path clip-path="url(#p8b3967237c)" d="M 378.159217 275.384445 
L 317.68447 244.959679 
L 279.887753 277.028246 
L 302.565783 197.55 
L 310.125126 202.823755 
L 385.718561 277.310809 
L 408.396591 281.707896 
L 400.837247 281.446839 
L 393.277904 280.124694 
L 355.481187 274.675659 
L 363.04053 272.077818 
L 272.328409 279.536372 
L 295.006439 226.415446 
L 287.447096 260.002076 
L 325.243813 295.600616 
L 347.921843 288.795755 
L 340.3625 312.384977 
L 370.599874 273.604508 
L 332.803157 320.55 
" style="fill:none;stroke:#808080;stroke-linecap:round;stroke-width:0.5;"/>
   </g>
   <g id="line2d_72">
    <path clip-path="url(#p8b3967237c)" d="M 378.159217 272.15495 
L 310.125126 254.279911 
L 279.887753 272.586335 
L 317.68447 262.124736 
L 302.565783 252.596136 
L 385.718561 272.92804 
L 408.396591 258.771518 
L 400.837247 264.371554 
L 393.277904 269.747299 
L 272.328409 275.464209 
L 355.481187 274.216087 
L 363.04053 272.469417 
L 295.006439 257.696062 
L 287.447096 265.639735 
L 325.243813 271.206906 
L 347.921843 274.960898 
L 340.3625 276.072265 
L 370.599874 271.404105 
L 332.803157 275.888496 
" style="fill:none;stroke:#808080;stroke-linecap:round;stroke-width:0.5;"/>
   </g>
   <g id="line2d_73">
    <path clip-path="url(#p8b3967237c)" d="M 272.328409 269.089692 
L 317.68447 257.301472 
L 310.125126 250.499577 
L 302.565783 247.850245 
L 295.006439 249.976958 
L 378.159217 262.803937 
L 385.718561 265.622991 
L 408.396591 266.571132 
L 400.837247 268.005748 
L 393.277904 267.799999 
L 355.481187 259.486279 
L 279.887753 264.554153 
L 287.447096 256.930488 
L 370.599874 259.589529 
L 347.921843 262.828212 
L 340.3625 267.41021 
L 325.243813 265.126806 
L 363.04053 258.168236 
L 332.803157 269.295838 
" style="fill:none;stroke:#808080;stroke-linecap:round;stroke-width:0.5;"/>
   </g>
   <g id="line2d_74">
    <path clip-path="url(#p8b3967237c)" d="M 378.159217 276.671071 
L 317.68447 241.449928 
L 279.887753 266.13426 
L 302.565783 248.344378 
L 310.125126 239.244206 
L 385.718561 273.895177 
L 408.396591 274.240537 
L 400.837247 271.118792 
L 393.277904 272.018358 
L 355.481187 296.343859 
L 363.04053 290.18457 
L 325.243813 257.367292 
L 272.328409 266.538418 
L 295.006439 259.632484 
L 287.447096 265.527747 
L 347.921843 297.781343 
L 340.3625 292.482668 
L 370.599874 282.408427 
L 332.803157 277.760991 
" style="fill:none;stroke:#808080;stroke-linecap:round;stroke-width:0.5;"/>
   </g>
   <g id="line2d_75">
    <path clip-path="url(#p8b3967237c)" d="M 295.006439 268.034986 
L 310.125126 260.2009 
L 279.887753 267.938863 
L 317.68447 258.81436 
L 302.565783 263.70904 
L 385.718561 257.800341 
L 408.396591 261.515691 
L 378.159217 259.009847 
L 400.837247 261.716581 
L 393.277904 260.850673 
L 272.328409 262.843876 
L 355.481187 271.352018 
L 363.04053 268.85844 
L 287.447096 270.565498 
L 370.599874 263.517097 
L 325.243813 259.942172 
L 340.3625 268.287124 
L 347.921843 271.456607 
L 332.803157 263.901765 
" style="fill:none;stroke:#808080;stroke-linecap:round;stroke-width:0.5;"/>
   </g>
   <g id="line2d_76">
    <path clip-path="url(#p8b3967237c)" d="M 317.68447 284.688592 
L 378.159217 253.212849 
L 279.887753 269.902313 
L 310.125126 270.876136 
L 302.565783 261.902019 
L 385.718561 258.01924 
L 408.396591 261.183707 
L 393.277904 261.464597 
L 400.837247 262.876758 
L 363.04053 252.078293 
L 355.481187 258.711184 
L 272.328409 263.725195 
L 295.006439 263.01311 
L 287.447096 269.403628 
L 347.921843 267.625032 
L 340.3625 279.055197 
L 370.599874 250.206133 
L 325.243813 292.762297 
L 332.803157 289.831318 
" style="fill:none;stroke:#808080;stroke-linecap:round;stroke-width:0.5;"/>
   </g>
   <g id="line2d_77">
    <path clip-path="url(#p8b3967237c)" d="M 317.68447 246.528476 
L 279.887753 281.714697 
L 310.125126 223.01944 
L 302.565783 228.427281 
L 385.718561 262.110179 
L 272.328409 280.149909 
L 408.396591 266.871184 
L 400.837247 266.502191 
L 393.277904 264.811213 
L 363.04053 262.22439 
L 355.481187 277.397522 
L 378.159217 259.532987 
L 325.243813 284.493122 
L 295.006439 253.63282 
L 287.447096 275.475389 
L 347.921843 299.374374 
L 340.3625 315.57168 
L 370.599874 256.790893 
L 332.803157 312.205454 
" style="fill:none;stroke:#808080;stroke-linecap:round;stroke-width:0.5;"/>
   </g>
   <g id="line2d_78">
    <path clip-path="url(#p8b3967237c)" d="M 317.68447 249.2432 
L 325.243813 254.695273 
L 279.887753 260.81422 
L 310.125126 243.746604 
L 302.565783 242.840492 
L 385.718561 272.971772 
L 408.396591 267.532721 
L 393.277904 272.14792 
L 400.837247 269.850727 
L 272.328409 263.737203 
L 363.04053 268.755468 
L 355.481187 263.840216 
L 378.159217 274.467717 
L 295.006439 250.226199 
L 287.447096 258.166724 
L 340.3625 262.975278 
L 347.921843 262.652835 
L 370.599874 273.676883 
L 332.803157 260.232695 
" style="fill:none;stroke:#808080;stroke-linecap:round;stroke-width:0.5;"/>
   </g>
   <g id="line2d_79">
    <path clip-path="url(#p8b3967237c)" d="M 310.125126 247.236156 
L 272.328409 270.592381 
L 302.565783 246.571402 
L 295.006439 254.850992 
L 317.68447 258.79878 
L 400.837247 267.766384 
L 408.396591 270.453367 
L 378.159217 268.275622 
L 385.718561 267.383344 
L 393.277904 267.204208 
L 355.481187 279.958533 
L 347.921843 288.69252 
L 370.599874 269.518133 
L 287.447096 264.872914 
L 279.887753 269.840916 
L 340.3625 294.309647 
L 332.803157 290.277874 
L 363.04053 273.325429 
L 325.243813 276.171083 
" style="fill:none;stroke:#808080;stroke-linecap:round;stroke-width:0.5;"/>
   </g>
   <g id="line2d_80">
    <path clip-path="url(#p8b3967237c)" d="M 310.125126 268.647734 
L 272.328409 264.588809 
L 302.565783 266.508375 
L 295.006439 267.081887 
L 317.68447 269.338312 
L 400.837247 265.117255 
L 385.718561 267.867278 
L 408.396591 264.87705 
L 378.159217 267.47247 
L 393.277904 266.935104 
L 355.481187 268.494002 
L 347.921843 269.5065 
L 370.599874 267.853953 
L 279.887753 268.771053 
L 287.447096 268.884198 
L 332.803157 267.430957 
L 340.3625 268.934392 
L 363.04053 267.376843 
L 325.243813 268.018789 
" style="fill:none;stroke:#808080;stroke-linecap:round;stroke-width:0.5;"/>
   </g>
   <g id="line2d_81">
    <path clip-path="url(#p8b3967237c)" d="M 310.125126 261.197977 
L 272.328409 283.215088 
L 302.565783 267.882007 
L 295.006439 278.769195 
L 317.68447 264.421986 
L 400.837247 241.498558 
L 385.718561 250.48113 
L 408.396591 235.849663 
L 378.159217 249.459892 
L 393.277904 247.110146 
L 355.481187 256.066443 
L 347.921843 267.748791 
L 370.599874 246.299687 
L 287.447096 285.484861 
L 279.887753 286.174214 
L 332.803157 281.493918 
L 340.3625 278.53321 
L 363.04053 247.561441 
L 325.243813 274.902775 
" style="fill:none;stroke:#808080;stroke-linecap:round;stroke-width:0.5;"/>
   </g>
   <g id="line2d_82">
    <path clip-path="url(#p8b3967237c)" d="M 310.125126 269.375275 
L 272.328409 270.537109 
L 302.565783 267.747023 
L 295.006439 270.530607 
L 317.68447 275.615213 
L 400.837247 264.587222 
L 385.718561 262.56609 
L 408.396591 267.449826 
L 378.159217 263.938986 
L 393.277904 262.9294 
L 355.481187 266.860964 
L 370.599874 264.87165 
L 279.887753 273.945865 
L 287.447096 273.052662 
L 340.3625 279.599129 
L 325.243813 282.22126 
L 363.04053 264.429703 
L 347.921843 271.78807 
L 332.803157 284.048069 
" style="fill:none;stroke:#808080;stroke-linecap:round;stroke-width:0.5;"/>
   </g>
   <g id="line2d_83">
    <path clip-path="url(#p8b3967237c)" d="M 310.125126 272.40192 
L 279.887753 281.597206 
L 317.68447 267.468835 
L 302.565783 276.739831 
L 385.718561 275.610558 
L 272.328409 280.852338 
L 408.396591 278.971062 
L 378.159217 273.037426 
L 400.837247 281.341858 
L 393.277904 279.728525 
L 355.481187 268.077754 
L 295.006439 279.72815 
L 287.447096 280.849704 
L 370.599874 272.25615 
L 347.921843 264.472171 
L 340.3625 261.50212 
L 325.243813 263.373967 
L 363.04053 271.074058 
L 332.803157 261.041593 
" style="fill:none;stroke:#808080;stroke-linecap:round;stroke-width:0.5;"/>
   </g>
   <g id="line2d_84">
    <path clip-path="url(#p8b3967237c)" d="M 295.006439 263.354824 
L 279.887753 261.615054 
L 317.68447 273.586084 
L 302.565783 265.543097 
L 310.125126 268.957992 
L 385.718561 262.966929 
L 408.396591 262.226801 
L 378.159217 273.368797 
L 400.837247 259.474486 
L 393.277904 255.736825 
L 272.328409 260.068539 
L 355.481187 283.882011 
L 363.04053 281.080852 
L 287.447096 263.250363 
L 325.243813 280.607641 
L 347.921843 287.998157 
L 340.3625 290.246588 
L 370.599874 279.042935 
L 332.803157 287.908719 
" style="fill:none;stroke:#808080;stroke-linecap:round;stroke-width:0.5;"/>
   </g>
   <g id="line2d_85">
    <path clip-path="url(#p8b3967237c)" d="M 272.328409 270.781367 
L 279.887753 271.615528 
L 287.447096 268.436142 
L 295.006439 260.210266 
L 302.565783 252.443666 
L 310.125126 252.32197 
L 317.68447 261.024261 
L 325.243813 273.320714 
L 332.803157 281.561978 
L 340.3625 281.954606 
L 347.921843 276.834376 
L 355.481187 271.383038 
L 363.04053 267.833211 
L 370.599874 266.502863 
L 378.159217 266.342214 
L 385.718561 266.25242 
L 393.277904 266.329212 
L 400.837247 266.119639 
L 408.396591 265.587297 
" style="fill:none;stroke:#ff0000;stroke-linecap:round;stroke-width:2;"/>
   </g>
   <g id="patch_12">
    <path d="M 265.525 326.7 
L 265.525 191.4 
" style="fill:none;stroke:#262626;stroke-linecap:square;stroke-linejoin:miter;stroke-width:1.25;"/>
   </g>
   <g id="patch_13">
    <path d="M 265.525 326.7 
L 415.2 326.7 
" style="fill:none;stroke:#262626;stroke-linecap:square;stroke-linejoin:miter;stroke-width:1.25;"/>
   </g>
  </g>
 </g>
 <defs>
  <clipPath id="pa7e07074cb">
   <rect height="135.3" width="149.675" x="58.925" y="16.8"/>
  </clipPath>
  <clipPath id="pcc4ccaba73">
   <rect height="135.3" width="149.675" x="265.525" y="16.8"/>
  </clipPath>
  <clipPath id="p08655889cd">
   <rect height="135.3" width="149.675" x="58.925" y="191.4"/>
  </clipPath>
  <clipPath id="p8b3967237c">
   <rect height="135.3" width="149.675" x="265.525" y="191.4"/>
  </clipPath>
 </defs>
</svg>
